<?xml version="1.0" standalone="no"?>
<!DOCTYPE svg PUBLIC "-//W3C//DTD SVG 20010904//EN"
        "http://www.w3.org/TR/2001/REC-SVG-20010904/DTD/svg10.dtd">
<svg version="1.0" xmlns="http://www.w3.org/2000/svg"
     width="990.000000pt" height="990.000000pt" viewBox="0 0 990.000000 990.000000"
     preserveAspectRatio="xMidYMid meet">
    <metadata>
        Created by potrace 1.14, written by Peter Selinger 2001-2017
    </metadata>
    <g transform="translate(0.000000,990.000000) scale(0.100000,-0.100000)"
       fill="#000000" stroke="none">
        <path d="M4895 8923 c-57 -14 -285 -82 -315 -95 -62 -26 -147 -86 -185 -130
-20 -24 -53 -76 -73 -117 -29 -59 -38 -90 -44 -160 -4 -47 -10 -108 -14 -134
-13 -102 64 -211 183 -257 32 -12 67 -26 78 -30 22 -9 70 -16 242 -36 51 -5
62 -10 68 -28 21 -71 27 -588 6 -609 -7 -7 -77 -14 -199 -18 -392 -15 -501
-21 -582 -35 -70 -12 -238 -35 -355 -48 -27 -4 -61 -8 -75 -11 -14 -3 -60 -7
-103 -10 -43 -3 -83 -7 -88 -11 -5 -3 -35 -10 -67 -14 -31 -5 -68 -11 -82 -15
-14 -3 -42 -7 -63 -10 -20 -3 -68 -12 -105 -20 -37 -9 -89 -21 -117 -27 -27
-6 -73 -21 -102 -34 -28 -13 -58 -24 -67 -24 -13 0 -62 -18 -171 -64 -97 -41
-238 -115 -291 -152 -34 -24 -64 -44 -67 -44 -8 0 -97 -60 -122 -82 -87 -77
-121 -105 -139 -117 -12 -8 -38 -32 -59 -53 -21 -21 -40 -38 -42 -38 -6 0
-115 -112 -115 -119 0 -3 -21 -29 -46 -56 -25 -28 -53 -63 -61 -80 -9 -16 -26
-43 -38 -60 -63 -83 -180 -363 -198 -470 -3 -16 -8 -37 -11 -45 -3 -8 -7 -37
-10 -64 -2 -27 -8 -51 -14 -55 -7 -5 -22 -80 -26 -136 -1 -8 -49 -23 -134 -39
-43 -9 -67 -19 -94 -40 -14 -11 -35 -28 -46 -36 -34 -26 -95 -121 -129 -199
-18 -42 -33 -81 -33 -86 0 -6 -6 -23 -12 -37 -12 -24 -17 -26 -54 -21 -53 7
-143 -19 -170 -49 -32 -36 -72 -146 -79 -218 -10 -107 4 -98 -163 -99 -193 -2
-233 -7 -254 -32 -43 -51 -25 -56 199 -50 110 3 199 3 197 0 -4 -7 14 -97 37
-184 15 -60 71 -162 105 -192 13 -13 73 -38 131 -56 70 -22 111 -40 118 -53 5
-10 22 -37 36 -59 15 -22 27 -44 27 -48 3 -28 80 -131 126 -166 44 -34 73 -46
171 -71 115 -30 144 -46 145 -80 1 -52 99 -260 172 -366 29 -41 62 -90 73
-108 36 -60 182 -223 217 -244 16 -9 28 -22 28 -29 0 -7 12 -19 28 -27 15 -8
49 -37 77 -65 27 -28 55 -51 62 -51 7 0 35 -16 62 -35 26 -19 53 -35 60 -35 6
0 11 -4 11 -9 0 -9 110 -61 130 -61 8 0 21 -6 29 -13 20 -17 197 -87 218 -87
9 0 39 -6 67 -14 28 -8 101 -26 161 -40 61 -14 151 -34 200 -46 50 -11 113
-23 140 -25 28 -2 59 -6 71 -9 11 -2 78 -7 149 -10 70 -4 132 -9 137 -12 5 -3
-13 -27 -40 -52 -27 -26 -69 -66 -93 -89 -24 -22 -49 -47 -54 -55 -69 -92 -75
-97 -133 -108 -31 -6 -71 -15 -88 -21 -17 -5 -44 -9 -60 -9 -90 0 -453 -135
-579 -215 -97 -62 -268 -202 -301 -246 -11 -16 -32 -40 -46 -54 -15 -14 -43
-52 -65 -83 -21 -31 -42 -60 -46 -63 -9 -7 -10 -9 -85 -150 -53 -100 -116
-260 -126 -319 -3 -19 -12 -78 -20 -130 -8 -52 -18 -111 -21 -130 -21 -132
-39 -327 -38 -427 0 -61 5 -89 18 -109 l17 -27 982 6 c901 4 984 6 1023 22 23
10 44 23 46 29 2 6 0 43 -5 81 -5 39 -8 97 -8 130 0 33 -6 106 -13 162 -13
101 -9 125 19 130 17 3 164 148 164 161 0 7 4 12 9 12 16 0 26 -23 27 -65 4
-90 51 -217 86 -233 4 -2 23 -16 44 -32 20 -17 40 -27 45 -24 5 3 17 -4 27
-16 9 -11 24 -22 32 -24 8 -2 22 -6 30 -9 76 -28 281 -41 327 -20 18 8 37 12
42 8 6 -3 11 -2 11 3 0 5 13 12 29 15 36 7 114 59 164 109 21 21 41 38 46 38
4 0 27 31 52 70 24 38 46 70 49 70 3 0 13 -18 24 -39 16 -34 68 -94 133 -153
11 -10 27 -18 35 -18 9 0 21 -7 28 -15 7 -8 21 -15 31 -15 10 0 26 -9 36 -19
37 -39 102 -55 233 -55 70 0 103 4 127 17 18 9 40 17 50 17 10 0 32 9 48 20
17 11 39 25 50 32 34 22 165 159 165 173 0 7 6 15 13 18 7 3 19 24 27 48 7 24
17 48 22 53 4 6 8 20 8 33 0 13 5 23 10 23 6 0 10 6 8 12 -1 7 3 23 10 36 7
12 9 22 5 22 -9 0 18 20 27 20 11 0 31 -70 24 -81 -6 -11 -17 -253 -17 -386 1
-40 -3 -73 -9 -73 -10 0 -5 -171 7 -207 4 -13 22 -32 40 -43 32 -20 48 -20
1088 -20 581 0 1058 4 1061 8 13 21 10 462 -4 612 -13 138 -79 406 -111 452
-11 14 -19 30 -19 35 0 28 -58 146 -96 196 -24 31 -44 61 -44 65 0 21 -227
225 -311 281 -52 33 -98 64 -104 69 -24 19 -105 62 -117 62 -8 0 -24 9 -36 21
-13 11 -44 30 -70 41 -26 11 -74 33 -108 48 -130 60 -283 102 -394 109 -58 4
-110 10 -117 14 -6 4 -17 24 -24 45 -6 20 -20 48 -29 62 -10 14 -29 48 -43 75
-15 30 -70 96 -136 164 -61 62 -111 116 -111 120 0 11 67 41 92 41 18 0 100
21 148 38 8 3 18 4 22 4 4 -1 25 4 45 12 21 8 52 17 68 21 17 4 44 12 60 19
17 8 62 26 100 41 308 119 531 249 760 441 141 119 285 292 355 427 19 37 43
82 52 100 9 17 17 39 18 47 0 8 10 27 23 43 19 23 31 28 85 32 72 4 185 39
221 66 13 11 29 19 37 19 17 0 67 43 105 92 18 22 52 88 75 147 l43 106 60 21
c33 12 62 20 64 18 8 -8 79 46 119 91 42 46 98 165 98 206 0 8 6 35 14 60 8
24 17 61 21 81 5 30 10 38 28 38 225 5 385 11 395 15 16 6 16 44 0 50 -7 2
-102 6 -210 8 -109 2 -199 5 -201 8 -2 2 -8 56 -14 119 -16 170 -48 251 -120
298 -29 19 -48 22 -122 22 -102 0 -108 4 -136 90 -16 49 -61 124 -104 174 -27
31 -124 93 -156 99 -84 18 -137 17 -218 -3 -97 -23 -97 -23 -97 -11 0 4 -43
95 -95 202 -98 197 -192 346 -287 454 -250 282 -378 401 -540 507 -133 86
-238 144 -238 132 0 -4 -8 0 -17 8 -17 14 -107 55 -343 156 -52 22 -160 64
-240 93 -80 28 -156 57 -170 64 -75 37 -339 72 -605 80 -88 2 -248 8 -355 13
-107 6 -241 9 -297 8 -83 -1 -104 2 -109 14 -3 8 -8 110 -10 225 -2 116 -7
253 -11 306 l-6 96 33 6 c18 4 65 7 104 7 106 0 190 17 298 59 85 34 193 104
206 134 2 4 9 13 15 20 43 47 65 128 73 270 7 108 -16 192 -74 282 -47 73 -45
72 -162 131 l-95 49 -205 1 c-113 1 -214 -1 -225 -3z m431 -123 c29 -10 55
-16 59 -12 4 4 6 0 3 -8 -6 -19 -39 -28 -107 -29 -70 -1 -255 -36 -351 -65
-41 -13 -113 -36 -161 -50 -105 -33 -174 -82 -211 -151 -34 -64 -78 -214 -78
-269 0 -64 -11 -73 -54 -47 -50 31 -57 77 -36 256 9 78 15 97 46 143 36 52 92
112 104 112 4 0 17 9 29 20 13 10 46 26 74 35 29 9 59 19 67 22 8 4 20 5 26 4
6 0 17 5 23 13 7 8 19 12 27 9 8 -3 40 2 71 12 111 35 379 38 469 5z m-65
-1568 c32 2 59 1 59 -4 0 -4 10 -7 23 -7 12 1 71 -2 131 -5 60 -4 166 -9 235
-12 69 -3 149 -7 176 -9 166 -16 190 -19 215 -27 36 -12 157 -39 165 -37 6 1
28 -6 50 -16 22 -10 48 -18 57 -17 10 0 38 -10 63 -24 25 -13 54 -24 64 -24 9
0 21 -4 26 -9 12 -11 137 -61 152 -61 6 0 16 -6 22 -14 7 -8 26 -18 43 -21 16
-4 56 -20 88 -36 33 -16 63 -29 69 -29 12 0 254 -122 261 -132 3 -4 26 -16 52
-27 25 -12 51 -28 58 -36 7 -8 17 -15 22 -15 6 0 27 -13 48 -30 21 -16 45 -30
54 -30 9 0 16 -7 16 -15 0 -8 10 -20 23 -26 36 -20 129 -111 272 -267 22 -24
60 -64 84 -89 48 -49 90 -103 134 -171 15 -23 38 -59 52 -80 14 -21 25 -43 25
-50 0 -13 46 -102 61 -117 5 -5 9 -14 9 -21 0 -6 17 -47 37 -90 20 -44 37 -81
38 -84 7 -33 29 -80 36 -80 5 0 9 -8 9 -17 0 -10 12 -54 25 -98 34 -107 54
-200 70 -315 7 -52 16 -111 19 -130 7 -38 9 -389 3 -485 -2 -33 -10 -100 -16
-150 -7 -49 -14 -104 -15 -121 -2 -17 -6 -35 -9 -41 -3 -5 -8 -27 -11 -49 -6
-43 -17 -85 -38 -154 -8 -25 -13 -50 -11 -56 2 -6 -3 -17 -12 -24 -8 -7 -15
-20 -15 -29 0 -25 -40 -125 -54 -136 -7 -5 -16 -26 -20 -47 -3 -20 -13 -39
-21 -42 -8 -3 -15 -13 -15 -23 0 -10 -11 -31 -25 -47 -14 -16 -25 -34 -25 -41
0 -14 -22 -44 -82 -109 -26 -28 -48 -57 -48 -63 0 -7 -6 -13 -13 -13 -8 0 -32
-19 -55 -42 -22 -24 -64 -61 -92 -83 -29 -22 -65 -52 -82 -67 -16 -16 -33 -28
-38 -28 -5 0 -15 -8 -22 -17 -7 -10 -18 -19 -23 -20 -6 -1 -66 -36 -133 -77
-67 -42 -128 -76 -137 -76 -8 0 -15 -4 -15 -9 0 -4 -20 -16 -45 -26 -25 -9
-66 -28 -91 -41 -25 -13 -51 -24 -59 -24 -7 0 -20 -7 -29 -15 -8 -9 -19 -14
-23 -13 -11 3 -126 -33 -137 -44 -6 -4 -18 -8 -27 -8 -9 0 -57 -12 -105 -26
-49 -14 -100 -28 -114 -30 -45 -9 -135 -36 -145 -45 -6 -4 -20 -8 -30 -8 -30
1 -97 -18 -104 -29 -3 -5 -23 -9 -44 -10 -20 -1 -47 -7 -60 -13 -12 -7 -31
-13 -42 -14 -11 -1 -46 -5 -77 -9 -32 -5 -61 -7 -64 -6 -4 1 -10 -3 -14 -10
-4 -6 -22 -13 -41 -16 -19 -3 -45 -7 -59 -9 -14 -3 -101 -7 -195 -9 -93 -3
-214 -6 -268 -7 -54 -1 -100 -6 -103 -11 -3 -5 -12 -4 -19 2 -8 7 -19 9 -25 5
-7 -4 -47 -7 -90 -6 -43 1 -81 -2 -83 -6 -3 -5 -105 -8 -226 -8 -122 0 -221
-2 -221 -6 0 -3 -57 -5 -127 -3 -70 2 -130 1 -135 -2 -10 -6 -428 -15 -735
-16 -123 0 -223 -4 -223 -9 0 -5 -11 -4 -25 1 -13 5 -73 14 -132 20 -59 6
-120 15 -135 21 -15 6 -33 9 -40 6 -7 -2 -24 0 -38 5 -14 6 -36 12 -50 14 -57
8 -96 17 -105 24 -8 6 -45 17 -85 25 -3 0 -22 7 -42 13 -20 7 -47 14 -60 16
-13 1 -40 10 -60 19 -21 9 -42 17 -48 17 -14 0 -137 47 -165 62 -11 7 -54 29
-95 51 -41 22 -94 53 -117 69 -24 16 -43 25 -43 21 0 -4 -4 -3 -8 2 -4 6 -20
19 -37 29 -16 11 -45 37 -64 58 -18 21 -39 38 -47 38 -7 0 -21 14 -31 30 -9
17 -23 30 -31 30 -7 0 -10 5 -7 10 3 6 0 10 -7 10 -8 0 -20 10 -28 22 -25 35
-72 90 -132 153 -32 33 -58 63 -58 68 0 14 -33 81 -47 95 -7 7 -13 20 -13 28
0 8 -4 14 -9 14 -4 0 -14 21 -21 48 -7 26 -17 52 -21 57 -4 6 -15 33 -25 60
-9 28 -25 61 -35 74 -10 13 -16 28 -13 33 3 5 -2 25 -11 44 -9 19 -18 51 -20
72 -1 20 -4 37 -5 37 -1 0 -3 13 -5 28 -2 16 -9 35 -15 42 -7 8 -9 19 -5 25 4
6 -1 22 -10 36 -9 14 -15 33 -14 42 3 20 -11 103 -20 117 -3 6 -6 17 -6 25 0
8 -4 21 -8 28 -5 6 -11 45 -13 85 -7 96 -12 142 -14 142 -22 0 -9 691 15 830
3 16 8 50 11 75 8 65 11 83 17 100 4 8 9 42 11 75 3 33 6 62 7 65 1 3 2 10 4
15 1 6 3 12 4 15 2 3 4 14 6 25 2 11 6 31 8 45 2 14 10 38 16 55 7 16 14 44
15 62 2 18 10 43 19 57 9 13 19 37 23 52 6 28 15 47 50 114 8 17 12 30 7 30
-4 0 -3 4 3 8 16 11 64 97 64 115 0 10 6 17 14 17 8 0 18 10 21 22 10 30 97
148 105 143 4 -2 12 7 18 20 7 14 17 25 24 25 7 0 24 14 38 31 28 33 47 52
126 122 30 26 59 47 64 47 6 0 10 6 10 14 0 8 14 19 30 25 17 5 30 15 30 20 0
6 6 11 13 11 8 0 24 11 37 25 13 14 28 25 34 25 5 0 19 8 30 19 12 10 59 38
106 62 47 24 87 46 90 49 12 12 51 30 64 30 7 0 19 7 26 15 7 8 21 15 31 15
11 0 19 5 19 10 0 6 6 10 14 10 16 0 78 31 87 43 3 4 10 7 15 6 15 -4 64 13
64 21 0 4 6 7 13 7 23 -2 112 16 123 24 6 5 33 12 60 15 27 3 58 9 69 14 11 4
47 13 80 20 33 6 80 17 105 23 24 6 53 10 63 10 9 -1 16 1 13 5 -2 4 17 8 42
8 26 1 58 4 72 8 14 3 53 8 87 11 35 2 81 9 103 15 21 6 56 11 77 12 21 0 43
3 48 7 6 3 33 6 60 7 46 1 151 10 235 20 19 2 78 7 130 10 53 4 105 12 117 20
14 9 24 10 28 4 4 -6 11 -7 17 -4 6 4 32 6 58 5 27 -1 59 3 73 8 15 6 28 6 34
0 5 -5 21 -5 40 0 17 5 36 5 44 0 8 -5 21 -7 29 -4 18 5 287 18 346 16 22 -1
52 2 65 7 14 6 35 5 52 -1 15 -5 55 -7 88 -5z m3331 -1739 c21 -14 46 -41 57
-59 11 -19 25 -34 31 -34 5 0 10 -9 10 -20 0 -11 4 -20 8 -20 17 0 84 -255 83
-312 0 -10 0 -26 1 -35 8 -136 -6 -545 -20 -567 -4 -6 -8 -20 -9 -31 -5 -46
-10 -73 -22 -115 -8 -25 -14 -49 -16 -55 -1 -5 -4 -17 -7 -25 -3 -8 -11 -35
-18 -60 -15 -56 -57 -140 -70 -140 -5 0 -24 -12 -42 -27 -31 -26 -87 -61 -98
-61 -10 -1 -45 -14 -62 -23 -10 -5 -29 -9 -44 -9 -14 0 -35 -5 -47 -12 -19
-10 -20 -9 -10 3 15 18 48 149 58 229 2 14 4 25 5 25 1 0 4 20 6 45 2 25 9 68
14 95 12 64 16 128 7 142 -4 6 -1 13 5 15 10 4 13 49 12 189 -1 101 -4 213 -7
249 -17 197 -19 225 -23 231 -1 3 -6 28 -9 55 -8 63 -33 173 -44 199 -19 43
-43 136 -38 149 3 9 31 18 69 23 78 11 167 -6 220 -44z m-7198 -225 c-3 -18
-9 -53 -13 -78 -4 -25 -7 -73 -6 -108 0 -35 -3 -66 -8 -69 -4 -3 -8 -69 -8
-147 1 -77 0 -152 0 -166 0 -14 0 -36 0 -50 0 -14 1 -71 1 -127 0 -56 4 -113
10 -127 5 -14 7 -40 4 -58 -3 -18 0 -46 7 -63 6 -16 11 -48 10 -70 -1 -22 3
-53 9 -69 6 -16 13 -50 15 -76 2 -25 11 -60 20 -76 8 -16 12 -37 9 -46 -6 -20
22 -138 36 -152 6 -6 10 -13 10 -16 0 -8 -62 0 -75 10 -5 4 -22 10 -37 14 -39
9 -98 46 -98 61 0 7 -4 15 -9 17 -10 3 -81 95 -81 104 0 6 -17 46 -54 124 -11
25 -20 48 -18 53 1 4 -2 7 -7 7 -4 0 -8 12 -9 28 0 28 -17 116 -32 167 -5 17
-10 49 -12 73 -1 24 -4 45 -7 47 -8 4 -3 291 5 333 4 19 2 38 -5 46 -7 8 -8
17 -3 20 10 6 30 73 35 116 2 14 8 35 15 47 7 12 12 33 12 46 0 14 7 28 16 31
8 3 12 11 9 17 -4 6 3 21 16 35 12 13 20 24 16 24 -17 0 82 79 106 85 15 4 30
11 33 16 3 5 25 9 49 9 l45 0 -6 -32z m7664 -152 c17 -27 32 -61 32 -77 0 -15
3 -30 8 -32 4 -3 6 -58 6 -124 -2 -138 -2 -138 -21 -223 -8 -36 -16 -74 -18
-85 -12 -90 -85 -193 -164 -232 l-43 -21 5 31 c39 226 48 303 48 422 0 39 0
111 0 160 0 50 -5 114 -11 144 -13 71 -7 89 33 93 65 6 90 -5 125 -56z m-8108
-246 c0 -5 -5 -21 -10 -36 -7 -18 -7 -30 0 -39 5 -6 7 -14 4 -18 -3 -3 -6 -23
-7 -44 -1 -21 -5 -42 -9 -48 -11 -17 2 -269 16 -305 3 -8 8 -28 10 -45 3 -26
10 -60 31 -152 8 -34 -33 -30 -88 7 -25 17 -49 30 -55 30 -5 0 -13 15 -16 34
-4 19 -15 45 -25 57 -10 13 -19 41 -19 62 -1 22 -8 52 -16 68 -8 16 -10 29 -5
29 11 0 9 139 -2 146 -4 2 0 23 8 46 8 24 12 56 9 71 -4 20 0 38 15 58 11 16
17 29 13 29 -14 0 22 34 49 45 35 14 97 18 97 5z m5476 -2392 c14 -13 49 -44
78 -70 28 -26 55 -48 59 -48 13 0 33 -23 51 -58 9 -18 21 -32 27 -32 5 0 13
-8 16 -17 4 -10 22 -41 40 -70 18 -29 33 -58 33 -66 0 -7 3 -17 7 -21 29 -28
56 -247 33 -261 -6 -3 -8 -10 -5 -15 12 -20 -62 -95 -127 -128 -58 -29 -78
-34 -142 -34 -41 -1 -81 3 -88 9 -7 5 -29 16 -48 23 -19 7 -47 25 -62 38 -15
14 -30 23 -34 20 -7 -8 -44 23 -44 36 0 6 -19 28 -41 51 -23 22 -65 74 -93
115 -46 67 -56 75 -87 78 -57 5 -62 -9 -65 -183 -1 -84 -7 -170 -14 -191 -16
-55 -17 -58 -19 -69 -3 -16 -33 -59 -48 -68 -7 -4 -13 -15 -13 -22 0 -8 -5
-15 -10 -15 -6 0 -21 -10 -34 -22 -61 -60 -139 -97 -162 -77 -8 6 -14 9 -14 5
0 -3 -22 5 -50 19 -27 14 -50 22 -50 18 0 -5 -4 -3 -8 3 -4 6 -23 21 -43 35
-19 13 -53 44 -75 69 -21 25 -48 53 -58 63 -10 9 -16 17 -12 17 4 0 -4 15 -18
33 -15 19 -26 39 -26 45 0 7 -3 12 -8 12 -10 0 -36 59 -39 87 -1 12 -9 37 -17
55 -8 18 -21 50 -30 70 -10 25 -23 39 -40 44 -30 7 -81 -8 -81 -24 0 -6 -6
-17 -12 -24 -7 -6 -13 -25 -13 -40 0 -15 -4 -28 -9 -28 -5 0 -8 -6 -8 -12 1
-23 -15 -78 -23 -78 -4 0 -10 -16 -13 -35 -3 -19 -17 -50 -31 -68 -14 -19 -26
-41 -26 -49 0 -9 -7 -21 -15 -28 -8 -7 -19 -27 -23 -44 -5 -17 -12 -31 -18
-31 -8 0 -38 -31 -116 -119 -10 -11 -18 -16 -18 -12 0 5 -11 1 -25 -8 -13 -9
-37 -18 -52 -20 -16 -2 -36 -7 -46 -11 -25 -10 -159 40 -188 71 -12 13 -28 24
-34 24 -7 0 -15 13 -18 29 -3 16 -13 36 -22 45 -24 24 -49 191 -44 296 2 55
-5 131 -12 136 -5 3 -7 10 -3 15 3 6 -9 24 -27 40 -31 27 -56 39 -45 20 3 -4
-5 -6 -17 -4 -16 2 -40 -14 -93 -64 -39 -38 -86 -77 -104 -88 -65 -38 -71 -42
-96 -66 -14 -13 -29 -24 -32 -23 -4 0 -25 -7 -47 -17 -22 -10 -46 -19 -53 -19
-7 0 -15 -6 -18 -14 -3 -8 -13 -12 -24 -9 -10 3 -28 -1 -41 -8 -13 -7 -58 -13
-99 -14 -78 -1 -86 3 -136 67 -14 18 -27 128 -15 128 6 0 13 21 17 48 5 32 18
61 43 91 47 58 158 171 168 171 4 0 34 20 65 45 32 25 61 45 65 45 4 0 17 10
31 23 21 19 35 22 115 24 51 0 92 2 92 3 0 7 53 5 63 -2 8 -7 17 -7 26 1 10 9
20 9 33 2 10 -5 37 -7 58 -5 22 3 87 7 144 10 57 2 111 9 120 14 10 5 23 5 29
1 7 -4 43 -6 80 -4 37 2 173 5 302 6 129 2 242 7 251 11 10 4 20 2 24 -4 5 -8
14 -6 32 6 19 12 27 13 33 4 5 -8 18 -10 39 -5 17 3 106 8 197 10 117 2 169 6
174 15 5 8 18 10 39 5 20 -4 31 -3 31 5 0 7 6 8 18 2 9 -5 26 -6 37 -1 11 4
41 8 67 8 26 1 50 6 53 11 4 6 13 7 22 1 9 -5 31 -5 52 1 20 4 58 11 86 14 27
3 54 9 60 14 5 4 33 11 60 15 28 3 57 9 65 12 8 3 37 7 63 9 27 2 56 8 65 14
24 14 29 13 58 -12z m-2232 -858 c8 -73 25 -146 40 -175 9 -16 16 -36 16 -42
0 -7 4 -13 9 -13 5 0 14 -14 21 -30 14 -35 64 -80 87 -80 9 0 21 -7 27 -16 6
-8 18 -16 26 -18 15 -3 38 -11 78 -27 37 -14 187 -13 215 3 13 7 48 26 77 41
28 16 68 43 87 60 38 35 128 153 128 168 0 5 5 13 10 17 18 13 42 66 48 106 3
21 13 46 21 55 8 9 19 32 24 51 8 30 10 32 17 15 19 -52 67 -145 76 -145 5 0
9 -4 9 -10 0 -23 107 -170 124 -170 2 0 20 -16 40 -35 21 -19 46 -35 57 -35
10 0 19 -4 19 -10 0 -16 143 -75 159 -66 5 4 12 2 15 -2 8 -14 97 4 144 28 55
29 172 145 195 192 10 21 24 44 32 51 15 15 18 26 35 136 6 36 13 68 16 72 3
5 0 17 -6 28 -19 37 11 37 42 0 30 -35 65 -73 108 -113 33 -32 133 -87 162
-90 13 -1 29 -5 35 -9 6 -4 44 -10 85 -13 71 -6 157 9 206 35 16 9 23 4 45
-29 29 -44 157 -306 157 -321 0 -5 4 -17 9 -27 8 -14 12 -25 23 -59 0 -1 8
-35 17 -75 14 -62 15 -83 4 -143 -14 -86 -38 -145 -67 -165 -11 -8 -23 -15
-26 -16 -3 0 -25 -6 -49 -13 -72 -21 -218 -4 -324 37 -63 24 -97 54 -159 137
-28 39 -55 71 -60 73 -4 2 -8 10 -8 18 0 14 -49 44 -73 44 -29 0 -56 -42 -81
-127 -15 -48 -31 -96 -36 -105 -6 -10 -10 -29 -10 -43 0 -14 -4 -25 -8 -25 -4
0 -18 -21 -30 -46 -29 -59 -84 -133 -99 -134 -7 0 -16 -6 -20 -13 -8 -13 -104
-62 -173 -88 -19 -8 -62 -13 -95 -13 -84 2 -239 57 -251 89 -3 6 -32 34 -64
61 -33 27 -60 54 -60 60 0 6 -10 33 -21 60 -12 26 -23 63 -25 82 -5 49 -29 82
-61 82 -28 0 -73 -35 -73 -56 0 -26 -106 -194 -154 -245 -56 -59 -67 -67 -141
-103 -53 -25 -114 -38 -180 -37 -43 1 -134 19 -150 31 -5 3 -29 12 -52 20 -23
7 -44 19 -47 26 -3 8 -13 14 -21 14 -9 0 -13 5 -10 10 3 6 2 10 -3 10 -10 0
-36 63 -48 115 -4 17 -12 33 -18 37 -6 5 -7 8 -1 8 13 0 11 167 -3 202 -12 29
-42 43 -75 34 -12 -3 -61 -43 -109 -88 -47 -46 -95 -90 -106 -99 -11 -9 -21
-21 -23 -25 -5 -11 -85 -74 -94 -74 -4 0 -14 -8 -23 -19 -32 -35 -162 -74
-244 -71 -54 1 -138 28 -162 53 -10 9 -23 17 -29 17 -7 1 -28 23 -47 50 -19
28 -38 50 -42 50 -3 0 -4 10 0 22 3 14 1 19 -6 14 -7 -4 -13 7 -17 31 -3 21
-8 49 -11 63 -9 50 -10 65 -3 75 5 6 9 32 11 58 2 26 9 49 16 52 6 2 12 10 12
18 0 23 76 171 114 220 20 26 36 50 36 53 0 4 16 24 35 45 19 22 35 44 35 49
0 6 6 10 14 10 8 0 18 8 21 18 12 33 84 85 121 88 71 5 119 17 137 32 9 8 20
13 23 9 7 -7 88 30 129 59 17 12 39 24 50 28 11 3 34 18 51 33 16 16 42 34 57
42 14 8 37 25 49 38 l23 25 8 -84 c4 -45 9 -99 11 -118z"/>
        <path d="M6751 5329 c-25 -5 -47 -12 -50 -17 -3 -4 -22 -14 -41 -22 -54 -20
-190 -168 -190 -205 0 -14 -5 -25 -11 -25 -6 0 -9 -7 -5 -15 3 -8 2 -15 -3
-15 -10 0 -22 -49 -25 -100 -1 -19 -4 -39 -7 -45 -21 -37 4 -175 31 -175 5 0
7 -7 4 -15 -8 -20 55 -114 103 -154 21 -18 50 -44 66 -58 15 -15 35 -27 45
-28 9 0 22 -4 27 -7 27 -15 96 -31 145 -33 59 -3 165 19 190 39 8 6 35 22 59
35 44 24 121 93 121 109 0 5 9 17 21 28 31 28 59 88 65 142 9 74 10 77 15 87
3 6 4 21 2 35 -2 14 -4 32 -4 40 -2 35 -30 118 -45 131 -8 7 -25 31 -36 53
-39 76 -185 191 -218 171 -5 -3 -10 -1 -10 5 0 6 -4 9 -9 5 -5 -3 -12 -1 -15
4 -7 11 -59 22 -116 25 -25 1 -49 4 -55 7 -5 3 -30 2 -54 -2z m109 -201 c22
-13 40 -28 40 -35 0 -6 6 -13 12 -15 16 -6 15 -91 -1 -96 -6 -2 -9 -8 -5 -13
3 -5 1 -9 -4 -9 -5 0 -14 -11 -20 -24 -17 -38 -99 -82 -159 -85 -99 -5 -149
54 -123 148 6 23 8 46 5 51 -3 6 -2 10 4 10 5 0 12 8 16 19 3 10 27 30 53 44
62 33 129 35 182 5z"/>
        <path d="M2659 5286 c-19 -6 -47 -19 -62 -28 -14 -10 -31 -18 -37 -18 -5 0
-10 -3 -10 -7 0 -5 -14 -17 -30 -28 -17 -11 -39 -33 -48 -50 -27 -45 -72 -157
-76 -185 -2 -14 -8 -45 -15 -69 -7 -23 -10 -49 -7 -57 3 -8 0 -14 -6 -14 -7 0
-7 -4 1 -14 9 -11 9 -15 0 -18 -10 -3 -10 -14 -1 -50 7 -25 15 -63 18 -85 3
-21 10 -41 15 -44 5 -3 7 -13 3 -22 -4 -11 0 -19 10 -23 9 -3 16 -15 16 -25 0
-21 117 -149 137 -149 7 0 13 -4 13 -8 0 -9 107 -42 137 -42 12 0 24 -4 27 -9
3 -4 29 -7 58 -4 29 2 64 4 78 4 25 0 111 28 120 39 3 3 19 12 36 19 58 23
194 174 186 205 -2 4 2 13 7 20 5 6 10 25 12 41 2 17 7 35 12 42 5 7 9 61 9
120 1 81 -3 117 -16 146 -9 20 -21 37 -26 37 -6 0 -10 5 -10 11 0 17 -60 101
-94 132 -42 39 -146 107 -171 112 -11 2 -49 11 -85 19 -73 18 -147 18 -201 2z
m130 -174 c45 -14 56 -23 74 -57 38 -75 32 -150 -20 -227 -43 -64 -124 -79
-208 -37 -45 22 -94 74 -108 112 -4 10 -1 30 7 45 7 15 16 44 20 65 4 21 14
41 22 44 8 3 13 12 12 20 -4 18 99 64 127 57 11 -3 44 -12 74 -22z"/>
        <path d="M5115 4802 c-3 -4 -32 -8 -63 -8 -141 -3 -153 -4 -147 -14 3 -5 1
-10 -4 -10 -6 0 -11 5 -11 11 0 6 -8 8 -17 5 -36 -11 -123 -17 -283 -21 -208
-6 -299 -10 -375 -20 -91 -11 -137 -15 -172 -15 -17 0 -34 -4 -38 -10 -3 -6
-10 -8 -14 -6 -4 3 -25 0 -47 -5 -21 -6 -55 -10 -74 -9 -41 1 -80 -29 -81 -63
-3 -73 5 -129 27 -183 13 -33 24 -65 24 -71 0 -6 10 -23 22 -39 13 -16 16 -25
8 -20 -8 4 -5 -1 8 -12 12 -11 22 -25 22 -30 0 -5 20 -27 43 -50 24 -22 47
-46 50 -55 8 -22 205 -137 238 -140 11 -1 19 -4 19 -8 0 -10 120 -39 185 -44
33 -3 79 -9 103 -15 42 -10 300 -2 322 10 3 1 25 4 50 5 116 8 324 60 361 92
9 7 18 10 22 7 3 -3 25 7 49 24 24 16 52 32 63 36 43 14 205 196 205 230 0 9
7 19 15 22 8 3 17 25 21 49 3 24 12 46 20 49 8 3 14 16 14 29 0 13 4 27 9 32
6 6 12 21 15 35 2 14 9 49 15 79 6 30 9 56 6 59 -3 3 0 11 6 18 9 11 7 15 -7
21 -11 3 -23 12 -27 19 -5 9 -22 12 -47 10 -22 -2 -40 0 -40 4 0 10 -423 6
-438 -4 -7 -4 -20 -2 -30 3 -11 6 -23 7 -27 3z m501 -102 c11 0 12 -4 5 -19
-6 -10 -8 -21 -5 -24 3 -3 -4 -26 -16 -53 -12 -26 -24 -58 -26 -72 -3 -13 -11
-31 -19 -39 -9 -8 -13 -18 -10 -23 3 -5 1 -11 -5 -15 -5 -3 -10 -15 -10 -26 0
-10 -4 -19 -10 -19 -5 0 -21 -18 -35 -40 -14 -22 -29 -40 -34 -40 -5 0 -8 81
-7 180 1 172 2 181 21 185 29 7 108 12 123 8 8 -2 20 -3 28 -3z m-261 -12 c7
-6 9 -158 4 -343 -2 -91 -4 -102 -26 -122 -13 -13 -35 -26 -48 -29 -13 -3 -26
-12 -29 -20 -3 -8 -12 -14 -20 -14 -11 0 -13 9 -9 38 5 42 5 46 4 236 -1 76 1
141 4 144 2 3 1 10 -3 16 -5 6 -7 32 -4 57 l4 45 58 0 c32 -1 61 -4 65 -8z
m-217 -23 c1 -8 2 -21 2 -27 -6 -158 -5 -467 2 -480 7 -14 3 -19 -19 -24 -16
-4 -32 -9 -38 -13 -17 -9 -49 -12 -73 -6 -18 4 -20 9 -13 23 5 9 7 53 5 97 -2
44 -6 127 -9 185 -2 58 -7 140 -10 183 l-6 77 79 0 c63 0 79 -3 80 -15z m-254
-4 c3 -5 7 -44 8 -87 1 -44 3 -82 5 -87 3 -4 6 -92 7 -195 l3 -189 -28 -15
c-17 -10 -31 -12 -36 -7 -6 6 -20 6 -38 -1 -15 -6 -30 -8 -33 -6 -6 6 -2 413
5 513 5 77 4 75 69 80 18 2 35 -1 38 -6z m-201 -64 c-3 -62 -12 -256 -17 -387
-2 -52 0 -103 5 -112 7 -13 4 -20 -11 -28 -11 -6 -20 -7 -20 -3 0 4 -19 9 -43
11 -23 1 -47 9 -53 17 -7 10 -10 47 -8 100 2 50 0 86 -6 90 -6 4 -7 11 -3 18
10 16 11 299 1 319 -8 17 -8 18 54 31 5 1 30 0 56 -1 l49 -4 -4 -51z m-241 13
c-6 -76 -4 -476 3 -496 l7 -22 -64 17 c-34 10 -80 25 -101 34 -36 16 -38 18
-38 64 0 50 -4 143 -12 321 -5 98 -4 102 16 107 30 6 82 10 142 10 l50 0 -3
-35z m-301 11 c6 -24 4 -61 -3 -61 -4 0 -5 -17 -2 -37 3 -21 7 -76 9 -123 1
-47 4 -107 7 -133 2 -27 1 -50 -3 -53 -4 -2 -21 7 -37 21 -16 14 -32 25 -35
25 -8 0 -57 49 -57 57 0 3 -9 14 -20 23 -12 10 -19 22 -18 26 2 5 -8 34 -21
64 -14 30 -25 60 -26 65 -2 18 -16 70 -25 93 -10 23 -2 27 42 23 9 -1 18 2 21
6 6 9 166 13 168 4z"/>
    </g>
</svg>
